<mxfile host="Electron" modified="2024-07-09T23:56:01.058Z" agent="Mozilla/5.0 (Windows NT 10.0; Win64; x64) AppleWebKit/537.36 (KHTML, like Gecko) draw.io/24.4.13 Chrome/124.0.6367.207 Electron/30.0.6 Safari/537.36" etag="LrhoPpfNO9ET-40cTttm" version="24.4.13" type="device">
  <diagram id="C5RBs43oDa-KdzZeNtuy" name="Page-1">
    <mxGraphModel dx="2876" dy="1206" grid="1" gridSize="10" guides="1" tooltips="1" connect="1" arrows="1" fold="1" page="1" pageScale="1" pageWidth="827" pageHeight="1169" math="0" shadow="0">
      <root>
        <mxCell id="WIyWlLk6GJQsqaUBKTNV-0" />
        <mxCell id="WIyWlLk6GJQsqaUBKTNV-1" parent="WIyWlLk6GJQsqaUBKTNV-0" />
        <mxCell id="RQnn3mF7lOvKZFte0xS3-6" style="rounded=0;orthogonalLoop=1;jettySize=auto;html=1;entryX=0.5;entryY=0;entryDx=0;entryDy=0;endArrow=none;endFill=0;" parent="WIyWlLk6GJQsqaUBKTNV-1" source="guMjgffCaEKqbJ106u8I-28" target="guMjgffCaEKqbJ106u8I-36" edge="1">
          <mxGeometry relative="1" as="geometry" />
        </mxCell>
        <mxCell id="guMjgffCaEKqbJ106u8I-28" value="OpenCVPPL" style="swimlane;fontStyle=1;align=center;verticalAlign=top;childLayout=stackLayout;horizontal=1;startSize=26;horizontalStack=0;resizeParent=1;resizeParentMax=0;resizeLast=0;collapsible=1;marginBottom=0;whiteSpace=wrap;html=1;fillColor=#fff2cc;strokeColor=#030201;" parent="WIyWlLk6GJQsqaUBKTNV-1" vertex="1">
          <mxGeometry x="10" y="165" width="200" height="130" as="geometry" />
        </mxCell>
        <mxCell id="guMjgffCaEKqbJ106u8I-29" value="&lt;div&gt;&lt;span style=&quot;background-color: initial;&quot;&gt;setup: USetup&lt;/span&gt;&lt;br&gt;&lt;/div&gt;&lt;div&gt;&lt;span style=&quot;background-color: initial;&quot;&gt;viewportManager&lt;/span&gt;&lt;br&gt;&lt;/div&gt;&lt;div&gt;&lt;span style=&quot;background-color: initial;&quot;&gt;panels: {}&lt;/span&gt;&lt;br&gt;&lt;/div&gt;" style="text;strokeColor=none;fillColor=none;align=left;verticalAlign=top;spacingLeft=4;spacingRight=4;overflow=hidden;rotatable=0;points=[[0,0.5],[1,0.5]];portConstraint=eastwest;whiteSpace=wrap;html=1;" parent="guMjgffCaEKqbJ106u8I-28" vertex="1">
          <mxGeometry y="26" width="200" height="64" as="geometry" />
        </mxCell>
        <mxCell id="guMjgffCaEKqbJ106u8I-30" value="" style="line;strokeWidth=1;fillColor=none;align=left;verticalAlign=middle;spacingTop=-1;spacingLeft=3;spacingRight=3;rotatable=0;labelPosition=right;points=[];portConstraint=eastwest;strokeColor=inherit;" parent="guMjgffCaEKqbJ106u8I-28" vertex="1">
          <mxGeometry y="90" width="200" height="8" as="geometry" />
        </mxCell>
        <mxCell id="guMjgffCaEKqbJ106u8I-31" value="add_action(actionName, params)&lt;div&gt;&lt;br&gt;&lt;/div&gt;" style="text;strokeColor=none;fillColor=none;align=left;verticalAlign=top;spacingLeft=4;spacingRight=4;overflow=hidden;rotatable=0;points=[[0,0.5],[1,0.5]];portConstraint=eastwest;whiteSpace=wrap;html=1;" parent="guMjgffCaEKqbJ106u8I-28" vertex="1">
          <mxGeometry y="98" width="200" height="32" as="geometry" />
        </mxCell>
        <mxCell id="wvwNAToeuNzU3zRsVvuj-59" style="edgeStyle=orthogonalEdgeStyle;rounded=0;orthogonalLoop=1;jettySize=auto;html=1;" edge="1" parent="WIyWlLk6GJQsqaUBKTNV-1" source="guMjgffCaEKqbJ106u8I-36" target="guMjgffCaEKqbJ106u8I-56">
          <mxGeometry relative="1" as="geometry" />
        </mxCell>
        <mxCell id="guMjgffCaEKqbJ106u8I-36" value="USetup" style="swimlane;fontStyle=1;align=center;verticalAlign=top;childLayout=stackLayout;horizontal=1;startSize=26;horizontalStack=0;resizeParent=1;resizeParentMax=0;resizeLast=0;collapsible=1;marginBottom=0;whiteSpace=wrap;html=1;fillColor=#FFFCD4;strokeColor=#36393d;" parent="WIyWlLk6GJQsqaUBKTNV-1" vertex="1">
          <mxGeometry x="30" y="450" width="160" height="86" as="geometry" />
        </mxCell>
        <mxCell id="guMjgffCaEKqbJ106u8I-37" value="+ filename" style="text;strokeColor=none;fillColor=none;align=left;verticalAlign=top;spacingLeft=4;spacingRight=4;overflow=hidden;rotatable=0;points=[[0,0.5],[1,0.5]];portConstraint=eastwest;whiteSpace=wrap;html=1;" parent="guMjgffCaEKqbJ106u8I-36" vertex="1">
          <mxGeometry y="26" width="160" height="26" as="geometry" />
        </mxCell>
        <mxCell id="guMjgffCaEKqbJ106u8I-38" value="" style="line;strokeWidth=1;fillColor=none;align=left;verticalAlign=middle;spacingTop=-1;spacingLeft=3;spacingRight=3;rotatable=0;labelPosition=right;points=[];portConstraint=eastwest;strokeColor=inherit;" parent="guMjgffCaEKqbJ106u8I-36" vertex="1">
          <mxGeometry y="52" width="160" height="8" as="geometry" />
        </mxCell>
        <mxCell id="guMjgffCaEKqbJ106u8I-39" value="+ load()" style="text;strokeColor=none;fillColor=none;align=left;verticalAlign=top;spacingLeft=4;spacingRight=4;overflow=hidden;rotatable=0;points=[[0,0.5],[1,0.5]];portConstraint=eastwest;whiteSpace=wrap;html=1;" parent="guMjgffCaEKqbJ106u8I-36" vertex="1">
          <mxGeometry y="60" width="160" height="26" as="geometry" />
        </mxCell>
        <mxCell id="guMjgffCaEKqbJ106u8I-48" value="UViewportManager" style="swimlane;fontStyle=1;align=center;verticalAlign=top;childLayout=stackLayout;horizontal=1;startSize=26;horizontalStack=0;resizeParent=1;resizeParentMax=0;resizeLast=0;collapsible=1;marginBottom=0;whiteSpace=wrap;html=1;fillColor=#FFFCD4;strokeColor=#36393d;" parent="WIyWlLk6GJQsqaUBKTNV-1" vertex="1">
          <mxGeometry x="350" y="170" width="160" height="120" as="geometry" />
        </mxCell>
        <mxCell id="guMjgffCaEKqbJ106u8I-49" value="setup&lt;div&gt;tabs: UViewport[]&lt;/div&gt;" style="text;strokeColor=none;fillColor=none;align=left;verticalAlign=top;spacingLeft=4;spacingRight=4;overflow=hidden;rotatable=0;points=[[0,0.5],[1,0.5]];portConstraint=eastwest;whiteSpace=wrap;html=1;" parent="guMjgffCaEKqbJ106u8I-48" vertex="1">
          <mxGeometry y="26" width="160" height="44" as="geometry" />
        </mxCell>
        <mxCell id="guMjgffCaEKqbJ106u8I-50" value="" style="line;strokeWidth=1;fillColor=none;align=left;verticalAlign=middle;spacingTop=-1;spacingLeft=3;spacingRight=3;rotatable=0;labelPosition=right;points=[];portConstraint=eastwest;strokeColor=inherit;" parent="guMjgffCaEKqbJ106u8I-48" vertex="1">
          <mxGeometry y="70" width="160" height="8" as="geometry" />
        </mxCell>
        <mxCell id="guMjgffCaEKqbJ106u8I-51" value="add_image(file_path)&lt;div&gt;close_tab()&lt;br&gt;&lt;/div&gt;" style="text;strokeColor=none;fillColor=none;align=left;verticalAlign=top;spacingLeft=4;spacingRight=4;overflow=hidden;rotatable=0;points=[[0,0.5],[1,0.5]];portConstraint=eastwest;whiteSpace=wrap;html=1;" parent="guMjgffCaEKqbJ106u8I-48" vertex="1">
          <mxGeometry y="78" width="160" height="42" as="geometry" />
        </mxCell>
        <mxCell id="guMjgffCaEKqbJ106u8I-56" value="FileUtils" style="swimlane;fontStyle=1;align=center;verticalAlign=top;childLayout=stackLayout;horizontal=1;startSize=26;horizontalStack=0;resizeParent=1;resizeParentMax=0;resizeLast=0;collapsible=1;marginBottom=0;whiteSpace=wrap;html=1;fillColor=#d5e8d4;strokeColor=#82b366;" parent="WIyWlLk6GJQsqaUBKTNV-1" vertex="1">
          <mxGeometry x="30" y="586" width="160" height="60" as="geometry" />
        </mxCell>
        <mxCell id="guMjgffCaEKqbJ106u8I-58" value="" style="line;strokeWidth=1;fillColor=none;align=left;verticalAlign=middle;spacingTop=-1;spacingLeft=3;spacingRight=3;rotatable=0;labelPosition=right;points=[];portConstraint=eastwest;strokeColor=inherit;" parent="guMjgffCaEKqbJ106u8I-56" vertex="1">
          <mxGeometry y="26" width="160" height="8" as="geometry" />
        </mxCell>
        <mxCell id="guMjgffCaEKqbJ106u8I-59" value="+ jsonReadFile()" style="text;strokeColor=none;fillColor=none;align=left;verticalAlign=top;spacingLeft=4;spacingRight=4;overflow=hidden;rotatable=0;points=[[0,0.5],[1,0.5]];portConstraint=eastwest;whiteSpace=wrap;html=1;" parent="guMjgffCaEKqbJ106u8I-56" vertex="1">
          <mxGeometry y="34" width="160" height="26" as="geometry" />
        </mxCell>
        <mxCell id="guMjgffCaEKqbJ106u8I-60" value="UPanel" style="swimlane;fontStyle=1;align=center;verticalAlign=top;childLayout=stackLayout;horizontal=1;startSize=26;horizontalStack=0;resizeParent=1;resizeParentMax=0;resizeLast=0;collapsible=1;marginBottom=0;whiteSpace=wrap;html=1;fillColor=#FFFCD4;strokeColor=#36393d;" parent="WIyWlLk6GJQsqaUBKTNV-1" vertex="1">
          <mxGeometry x="350" y="400" width="180" height="120" as="geometry" />
        </mxCell>
        <mxCell id="guMjgffCaEKqbJ106u8I-61" value="setup&lt;br&gt;panel_title&lt;br&gt;&lt;div&gt;&lt;br&gt;&lt;/div&gt;" style="text;strokeColor=none;fillColor=none;align=left;verticalAlign=top;spacingLeft=4;spacingRight=4;overflow=hidden;rotatable=0;points=[[0,0.5],[1,0.5]];portConstraint=eastwest;whiteSpace=wrap;html=1;" parent="guMjgffCaEKqbJ106u8I-60" vertex="1">
          <mxGeometry y="26" width="180" height="44" as="geometry" />
        </mxCell>
        <mxCell id="guMjgffCaEKqbJ106u8I-62" value="" style="line;strokeWidth=1;fillColor=none;align=left;verticalAlign=middle;spacingTop=-1;spacingLeft=3;spacingRight=3;rotatable=0;labelPosition=right;points=[];portConstraint=eastwest;strokeColor=inherit;" parent="guMjgffCaEKqbJ106u8I-60" vertex="1">
          <mxGeometry y="70" width="180" height="8" as="geometry" />
        </mxCell>
        <mxCell id="guMjgffCaEKqbJ106u8I-63" value="move_to_edge(edge, distance)&lt;div&gt;move_on()&lt;/div&gt;" style="text;strokeColor=none;fillColor=none;align=left;verticalAlign=top;spacingLeft=4;spacingRight=4;overflow=hidden;rotatable=0;points=[[0,0.5],[1,0.5]];portConstraint=eastwest;whiteSpace=wrap;html=1;" parent="guMjgffCaEKqbJ106u8I-60" vertex="1">
          <mxGeometry y="78" width="180" height="42" as="geometry" />
        </mxCell>
        <mxCell id="guMjgffCaEKqbJ106u8I-64" value="CVUtils" style="swimlane;fontStyle=1;align=center;verticalAlign=top;childLayout=stackLayout;horizontal=1;startSize=26;horizontalStack=0;resizeParent=1;resizeParentMax=0;resizeLast=0;collapsible=1;marginBottom=0;whiteSpace=wrap;html=1;fillColor=#d5e8d4;strokeColor=#82b366;" parent="WIyWlLk6GJQsqaUBKTNV-1" vertex="1">
          <mxGeometry x="958" y="250" width="160" height="34" as="geometry" />
        </mxCell>
        <mxCell id="guMjgffCaEKqbJ106u8I-66" value="" style="line;strokeWidth=1;fillColor=none;align=left;verticalAlign=middle;spacingTop=-1;spacingLeft=3;spacingRight=3;rotatable=0;labelPosition=right;points=[];portConstraint=eastwest;strokeColor=inherit;" parent="guMjgffCaEKqbJ106u8I-64" vertex="1">
          <mxGeometry y="26" width="160" height="8" as="geometry" />
        </mxCell>
        <mxCell id="RQnn3mF7lOvKZFte0xS3-1" value="&lt;b&gt;Clase Principal del GUI&lt;/b&gt;&lt;div&gt;&lt;div&gt;&amp;nbsp; &amp;nbsp; # Controla la interacción principal con el usuario de la Aplicación, menú, paneles, teclado.&lt;/div&gt;&lt;div&gt;&amp;nbsp; &amp;nbsp; # setup de configuración opencvPPL.setup.json&lt;/div&gt;&lt;div&gt;&amp;nbsp; &amp;nbsp; # referencia a ViewportManager que gestiona los diferentes viewports (pestañas de imagen)&lt;/div&gt;&lt;/div&gt;&lt;div&gt;&amp;nbsp; &amp;nbsp; # add_action(): prepara una acción para que el viewport activo la ejecute (viewport.do_action())&lt;/div&gt;" style="shape=note2;boundedLbl=1;whiteSpace=wrap;html=1;size=12;verticalAlign=top;align=left;fillColor=#f5f5f5;fontColor=#333333;strokeColor=#666666;" parent="WIyWlLk6GJQsqaUBKTNV-1" vertex="1">
          <mxGeometry x="-190" y="14" width="590" height="100" as="geometry" />
        </mxCell>
        <mxCell id="RQnn3mF7lOvKZFte0xS3-4" style="edgeStyle=orthogonalEdgeStyle;rounded=0;orthogonalLoop=1;jettySize=auto;html=1;entryX=0;entryY=0.5;entryDx=0;entryDy=0;" parent="WIyWlLk6GJQsqaUBKTNV-1" source="RQnn3mF7lOvKZFte0xS3-3" target="guMjgffCaEKqbJ106u8I-37" edge="1">
          <mxGeometry relative="1" as="geometry">
            <mxPoint x="105" y="440" as="targetPoint" />
          </mxGeometry>
        </mxCell>
        <mxCell id="RQnn3mF7lOvKZFte0xS3-3" value="Clase de configuración de la App:&lt;br&gt;Lee de &quot;opencvPPL.setup.json&quot; la configuración de la aplicación" style="shape=note2;boundedLbl=1;whiteSpace=wrap;html=1;size=12;verticalAlign=top;align=left;fillColor=#f5f5f5;fontColor=#333333;strokeColor=#666666;" parent="WIyWlLk6GJQsqaUBKTNV-1" vertex="1">
          <mxGeometry x="-140" y="340" width="220" height="70" as="geometry" />
        </mxCell>
        <mxCell id="RQnn3mF7lOvKZFte0xS3-9" style="edgeStyle=orthogonalEdgeStyle;rounded=0;orthogonalLoop=1;jettySize=auto;html=1;entryX=-0.006;entryY=0.619;entryDx=0;entryDy=0;entryPerimeter=0;exitX=0.234;exitY=0.99;exitDx=0;exitDy=0;exitPerimeter=0;" parent="WIyWlLk6GJQsqaUBKTNV-1" source="RQnn3mF7lOvKZFte0xS3-1" target="guMjgffCaEKqbJ106u8I-29" edge="1">
          <mxGeometry relative="1" as="geometry" />
        </mxCell>
        <mxCell id="RQnn3mF7lOvKZFte0xS3-12" style="rounded=0;orthogonalLoop=1;jettySize=auto;html=1;endArrow=none;endFill=0;startArrow=none;startFill=0;" parent="WIyWlLk6GJQsqaUBKTNV-1" source="guMjgffCaEKqbJ106u8I-28" target="guMjgffCaEKqbJ106u8I-48" edge="1">
          <mxGeometry relative="1" as="geometry">
            <mxPoint x="230" y="190" as="sourcePoint" />
            <mxPoint x="340" y="190" as="targetPoint" />
          </mxGeometry>
        </mxCell>
        <mxCell id="wvwNAToeuNzU3zRsVvuj-36" style="edgeStyle=orthogonalEdgeStyle;rounded=0;orthogonalLoop=1;jettySize=auto;html=1;endArrow=none;endFill=0;" edge="1" parent="WIyWlLk6GJQsqaUBKTNV-1" source="wvwNAToeuNzU3zRsVvuj-1" target="wvwNAToeuNzU3zRsVvuj-23">
          <mxGeometry relative="1" as="geometry" />
        </mxCell>
        <mxCell id="wvwNAToeuNzU3zRsVvuj-71" style="edgeStyle=orthogonalEdgeStyle;rounded=0;orthogonalLoop=1;jettySize=auto;html=1;" edge="1" parent="WIyWlLk6GJQsqaUBKTNV-1" source="wvwNAToeuNzU3zRsVvuj-1" target="guMjgffCaEKqbJ106u8I-64">
          <mxGeometry relative="1" as="geometry">
            <Array as="points">
              <mxPoint x="880" y="267" />
              <mxPoint x="880" y="267" />
            </Array>
          </mxGeometry>
        </mxCell>
        <mxCell id="wvwNAToeuNzU3zRsVvuj-1" value="UViewport" style="swimlane;fontStyle=1;align=center;verticalAlign=top;childLayout=stackLayout;horizontal=1;startSize=26;horizontalStack=0;resizeParent=1;resizeParentMax=0;resizeLast=0;collapsible=1;marginBottom=0;whiteSpace=wrap;html=1;fillColor=#FFFCD4;strokeColor=#36393d;" vertex="1" parent="WIyWlLk6GJQsqaUBKTNV-1">
          <mxGeometry x="665" y="120" width="200" height="220" as="geometry" />
        </mxCell>
        <mxCell id="wvwNAToeuNzU3zRsVvuj-2" value="setup&lt;div&gt;actionManager: UActionManager&lt;/div&gt;&lt;div&gt;img&lt;/div&gt;&lt;div&gt;modified: boolean&lt;/div&gt;&lt;div&gt;&lt;br&gt;&lt;/div&gt;&lt;div&gt;&lt;br&gt;&lt;/div&gt;" style="text;strokeColor=none;fillColor=none;align=left;verticalAlign=top;spacingLeft=4;spacingRight=4;overflow=hidden;rotatable=0;points=[[0,0.5],[1,0.5]];portConstraint=eastwest;whiteSpace=wrap;html=1;" vertex="1" parent="wvwNAToeuNzU3zRsVvuj-1">
          <mxGeometry y="26" width="200" height="74" as="geometry" />
        </mxCell>
        <mxCell id="wvwNAToeuNzU3zRsVvuj-3" value="" style="line;strokeWidth=1;fillColor=none;align=left;verticalAlign=middle;spacingTop=-1;spacingLeft=3;spacingRight=3;rotatable=0;labelPosition=right;points=[];portConstraint=eastwest;strokeColor=inherit;" vertex="1" parent="wvwNAToeuNzU3zRsVvuj-1">
          <mxGeometry y="100" width="200" height="8" as="geometry" />
        </mxCell>
        <mxCell id="wvwNAToeuNzU3zRsVvuj-4" value="&lt;div&gt;display_image()&lt;br&gt;&lt;/div&gt;&lt;div&gt;do_action(actionName, params)&lt;br&gt;&lt;/div&gt;&lt;div&gt;action_execute(actionName, params)&lt;br&gt;&lt;/div&gt;&lt;div&gt;action_redo()&lt;br&gt;action_pipeline_open(file_path)&lt;br&gt;action_pipeline_save(file_path)&lt;br&gt;&lt;/div&gt;" style="text;strokeColor=none;fillColor=none;align=left;verticalAlign=top;spacingLeft=4;spacingRight=4;overflow=hidden;rotatable=0;points=[[0,0.5],[1,0.5]];portConstraint=eastwest;whiteSpace=wrap;html=1;" vertex="1" parent="wvwNAToeuNzU3zRsVvuj-1">
          <mxGeometry y="108" width="200" height="112" as="geometry" />
        </mxCell>
        <mxCell id="wvwNAToeuNzU3zRsVvuj-5" style="edgeStyle=orthogonalEdgeStyle;rounded=0;orthogonalLoop=1;jettySize=auto;html=1;endArrow=none;endFill=0;startArrow=none;startFill=0;" edge="1" parent="WIyWlLk6GJQsqaUBKTNV-1" source="guMjgffCaEKqbJ106u8I-48" target="wvwNAToeuNzU3zRsVvuj-1">
          <mxGeometry relative="1" as="geometry">
            <mxPoint x="440" y="320" as="sourcePoint" />
            <mxPoint x="550" y="320" as="targetPoint" />
          </mxGeometry>
        </mxCell>
        <mxCell id="wvwNAToeuNzU3zRsVvuj-10" value="0..*" style="edgeLabel;html=1;align=center;verticalAlign=middle;resizable=0;points=[];" vertex="1" connectable="0" parent="wvwNAToeuNzU3zRsVvuj-5">
          <mxGeometry x="0.2755" y="1" relative="1" as="geometry">
            <mxPoint x="42" y="-10" as="offset" />
          </mxGeometry>
        </mxCell>
        <mxCell id="wvwNAToeuNzU3zRsVvuj-8" style="edgeStyle=orthogonalEdgeStyle;rounded=0;orthogonalLoop=1;jettySize=auto;html=1;endArrow=none;endFill=0;startArrow=none;startFill=0;" edge="1" parent="WIyWlLk6GJQsqaUBKTNV-1" source="guMjgffCaEKqbJ106u8I-28" target="guMjgffCaEKqbJ106u8I-60">
          <mxGeometry relative="1" as="geometry">
            <mxPoint x="300" y="290" as="sourcePoint" />
            <mxPoint x="310" y="350" as="targetPoint" />
            <Array as="points">
              <mxPoint x="260" y="240" />
              <mxPoint x="260" y="450" />
            </Array>
          </mxGeometry>
        </mxCell>
        <mxCell id="wvwNAToeuNzU3zRsVvuj-9" value="0..*" style="edgeLabel;html=1;align=center;verticalAlign=middle;resizable=0;points=[];" vertex="1" connectable="0" parent="wvwNAToeuNzU3zRsVvuj-8">
          <mxGeometry x="0.8499" relative="1" as="geometry">
            <mxPoint x="5" y="14" as="offset" />
          </mxGeometry>
        </mxCell>
        <mxCell id="wvwNAToeuNzU3zRsVvuj-12" value="" style="endArrow=block;endSize=10;endFill=0;shadow=0;strokeWidth=1;rounded=0;curved=0;edgeStyle=elbowEdgeStyle;elbow=vertical;exitX=0.42;exitY=-0.021;exitDx=0;exitDy=0;exitPerimeter=0;" edge="1" parent="WIyWlLk6GJQsqaUBKTNV-1" source="wvwNAToeuNzU3zRsVvuj-19" target="guMjgffCaEKqbJ106u8I-60">
          <mxGeometry width="160" relative="1" as="geometry">
            <mxPoint x="370" y="640" as="sourcePoint" />
            <mxPoint x="435" y="543" as="targetPoint" />
            <Array as="points">
              <mxPoint x="440" y="610" />
            </Array>
          </mxGeometry>
        </mxCell>
        <mxCell id="wvwNAToeuNzU3zRsVvuj-13" value="" style="endArrow=block;endSize=10;endFill=0;shadow=0;strokeWidth=1;rounded=0;curved=0;edgeStyle=elbowEdgeStyle;elbow=vertical;exitX=0.448;exitY=-0.027;exitDx=0;exitDy=0;exitPerimeter=0;" edge="1" parent="WIyWlLk6GJQsqaUBKTNV-1" source="wvwNAToeuNzU3zRsVvuj-31" target="guMjgffCaEKqbJ106u8I-60">
          <mxGeometry width="160" relative="1" as="geometry">
            <mxPoint x="545" y="645" as="sourcePoint" />
            <mxPoint x="435" y="543" as="targetPoint" />
            <Array as="points">
              <mxPoint x="440" y="610" />
            </Array>
          </mxGeometry>
        </mxCell>
        <mxCell id="wvwNAToeuNzU3zRsVvuj-14" value="" style="endArrow=block;endSize=10;endFill=0;shadow=0;strokeWidth=1;rounded=0;curved=0;edgeStyle=elbowEdgeStyle;elbow=vertical;exitX=0.543;exitY=0.025;exitDx=0;exitDy=0;exitPerimeter=0;" edge="1" parent="WIyWlLk6GJQsqaUBKTNV-1" source="wvwNAToeuNzU3zRsVvuj-15" target="guMjgffCaEKqbJ106u8I-60">
          <mxGeometry width="160" relative="1" as="geometry">
            <mxPoint x="280" y="640" as="sourcePoint" />
            <mxPoint x="450" y="530" as="targetPoint" />
            <Array as="points">
              <mxPoint x="330" y="610" />
            </Array>
          </mxGeometry>
        </mxCell>
        <mxCell id="wvwNAToeuNzU3zRsVvuj-15" value="UPanelTools" style="swimlane;fontStyle=1;align=center;verticalAlign=top;childLayout=stackLayout;horizontal=1;startSize=26;horizontalStack=0;resizeParent=1;resizeParentMax=0;resizeLast=0;collapsible=1;marginBottom=0;whiteSpace=wrap;html=1;fillColor=#FFFCD4;strokeColor=#36393d;" vertex="1" parent="WIyWlLk6GJQsqaUBKTNV-1">
          <mxGeometry x="140" y="690" width="150" height="100" as="geometry" />
        </mxCell>
        <mxCell id="wvwNAToeuNzU3zRsVvuj-16" value="&lt;div&gt;buttons&lt;br&gt;&lt;/div&gt;" style="text;strokeColor=none;fillColor=none;align=left;verticalAlign=top;spacingLeft=4;spacingRight=4;overflow=hidden;rotatable=0;points=[[0,0.5],[1,0.5]];portConstraint=eastwest;whiteSpace=wrap;html=1;" vertex="1" parent="wvwNAToeuNzU3zRsVvuj-15">
          <mxGeometry y="26" width="150" height="34" as="geometry" />
        </mxCell>
        <mxCell id="wvwNAToeuNzU3zRsVvuj-17" value="" style="line;strokeWidth=1;fillColor=none;align=left;verticalAlign=middle;spacingTop=-1;spacingLeft=3;spacingRight=3;rotatable=0;labelPosition=right;points=[];portConstraint=eastwest;strokeColor=inherit;" vertex="1" parent="wvwNAToeuNzU3zRsVvuj-15">
          <mxGeometry y="60" width="150" height="8" as="geometry" />
        </mxCell>
        <mxCell id="wvwNAToeuNzU3zRsVvuj-18" value="create_action_buttons()" style="text;strokeColor=none;fillColor=none;align=left;verticalAlign=top;spacingLeft=4;spacingRight=4;overflow=hidden;rotatable=0;points=[[0,0.5],[1,0.5]];portConstraint=eastwest;whiteSpace=wrap;html=1;" vertex="1" parent="wvwNAToeuNzU3zRsVvuj-15">
          <mxGeometry y="68" width="150" height="32" as="geometry" />
        </mxCell>
        <mxCell id="wvwNAToeuNzU3zRsVvuj-19" value="UPanelInfo" style="swimlane;fontStyle=1;align=center;verticalAlign=top;childLayout=stackLayout;horizontal=1;startSize=26;horizontalStack=0;resizeParent=1;resizeParentMax=0;resizeLast=0;collapsible=1;marginBottom=0;whiteSpace=wrap;html=1;fillColor=#FFFCD4;strokeColor=#36393d;" vertex="1" parent="WIyWlLk6GJQsqaUBKTNV-1">
          <mxGeometry x="310" y="688" width="150" height="130" as="geometry" />
        </mxCell>
        <mxCell id="wvwNAToeuNzU3zRsVvuj-20" value="&lt;div&gt;text_entries: []&lt;br&gt;&lt;/div&gt;&lt;div&gt;scrolled_text:&amp;nbsp;UText&lt;br&gt;&lt;/div&gt;" style="text;strokeColor=none;fillColor=none;align=left;verticalAlign=top;spacingLeft=4;spacingRight=4;overflow=hidden;rotatable=0;points=[[0,0.5],[1,0.5]];portConstraint=eastwest;whiteSpace=wrap;html=1;" vertex="1" parent="wvwNAToeuNzU3zRsVvuj-19">
          <mxGeometry y="26" width="150" height="34" as="geometry" />
        </mxCell>
        <mxCell id="wvwNAToeuNzU3zRsVvuj-21" value="" style="line;strokeWidth=1;fillColor=none;align=left;verticalAlign=middle;spacingTop=-1;spacingLeft=3;spacingRight=3;rotatable=0;labelPosition=right;points=[];portConstraint=eastwest;strokeColor=inherit;" vertex="1" parent="wvwNAToeuNzU3zRsVvuj-19">
          <mxGeometry y="60" width="150" height="8" as="geometry" />
        </mxCell>
        <mxCell id="wvwNAToeuNzU3zRsVvuj-22" value="clear()&lt;div&gt;add_text(new_text)&lt;br&gt;&lt;div&gt;updateLog(log_entries)&lt;/div&gt;&lt;/div&gt;" style="text;strokeColor=none;fillColor=none;align=left;verticalAlign=top;spacingLeft=4;spacingRight=4;overflow=hidden;rotatable=0;points=[[0,0.5],[1,0.5]];portConstraint=eastwest;whiteSpace=wrap;html=1;" vertex="1" parent="wvwNAToeuNzU3zRsVvuj-19">
          <mxGeometry y="68" width="150" height="62" as="geometry" />
        </mxCell>
        <mxCell id="wvwNAToeuNzU3zRsVvuj-66" style="edgeStyle=orthogonalEdgeStyle;rounded=0;orthogonalLoop=1;jettySize=auto;html=1;" edge="1" parent="WIyWlLk6GJQsqaUBKTNV-1" source="wvwNAToeuNzU3zRsVvuj-23" target="wvwNAToeuNzU3zRsVvuj-63">
          <mxGeometry relative="1" as="geometry" />
        </mxCell>
        <mxCell id="wvwNAToeuNzU3zRsVvuj-69" style="edgeStyle=orthogonalEdgeStyle;rounded=0;orthogonalLoop=1;jettySize=auto;html=1;endArrow=none;endFill=0;" edge="1" parent="WIyWlLk6GJQsqaUBKTNV-1" source="wvwNAToeuNzU3zRsVvuj-23" target="wvwNAToeuNzU3zRsVvuj-37">
          <mxGeometry relative="1" as="geometry" />
        </mxCell>
        <mxCell id="wvwNAToeuNzU3zRsVvuj-23" value="UActionManager" style="swimlane;fontStyle=1;align=center;verticalAlign=top;childLayout=stackLayout;horizontal=1;startSize=26;horizontalStack=0;resizeParent=1;resizeParentMax=0;resizeLast=0;collapsible=1;marginBottom=0;whiteSpace=wrap;html=1;fillColor=#FFFCD4;strokeColor=#36393d;" vertex="1" parent="WIyWlLk6GJQsqaUBKTNV-1">
          <mxGeometry x="640" y="410" width="250" height="230" as="geometry" />
        </mxCell>
        <mxCell id="wvwNAToeuNzU3zRsVvuj-24" value="SETUP: static&lt;div&gt;viewport: UViewport&lt;/div&gt;&lt;div&gt;actions: UAction[]&lt;/div&gt;&lt;div&gt;last_action&lt;br&gt;&lt;/div&gt;" style="text;strokeColor=none;fillColor=none;align=left;verticalAlign=top;spacingLeft=4;spacingRight=4;overflow=hidden;rotatable=0;points=[[0,0.5],[1,0.5]];portConstraint=eastwest;whiteSpace=wrap;html=1;" vertex="1" parent="wvwNAToeuNzU3zRsVvuj-23">
          <mxGeometry y="26" width="250" height="74" as="geometry" />
        </mxCell>
        <mxCell id="wvwNAToeuNzU3zRsVvuj-25" value="" style="line;strokeWidth=1;fillColor=none;align=left;verticalAlign=middle;spacingTop=-1;spacingLeft=3;spacingRight=3;rotatable=0;labelPosition=right;points=[];portConstraint=eastwest;strokeColor=inherit;" vertex="1" parent="wvwNAToeuNzU3zRsVvuj-23">
          <mxGeometry y="100" width="250" height="8" as="geometry" />
        </mxCell>
        <mxCell id="wvwNAToeuNzU3zRsVvuj-26" value="&lt;div&gt;static&amp;nbsp;get_available_actions()&lt;/div&gt;&lt;div&gt;static&amp;nbsp;get_actionSetup(&lt;span style=&quot;background-color: initial;&quot;&gt;actionName&lt;/span&gt;&lt;span style=&quot;background-color: initial;&quot;&gt;)&lt;/span&gt;&lt;/div&gt;&lt;div&gt;static&amp;nbsp;get_actionVariableKeys(actionName)&lt;/div&gt;&lt;div&gt;getCurrentAction()&lt;br&gt;&lt;/div&gt;&lt;div&gt;add_history_action()&lt;br&gt;&lt;/div&gt;&lt;div&gt;set_action_index(newIndex)&lt;br&gt;&lt;/div&gt;&lt;div&gt;update_viewport()&lt;br&gt;&lt;/div&gt;" style="text;strokeColor=none;fillColor=none;align=left;verticalAlign=top;spacingLeft=4;spacingRight=4;overflow=hidden;rotatable=0;points=[[0,0.5],[1,0.5]];portConstraint=eastwest;whiteSpace=wrap;html=1;" vertex="1" parent="wvwNAToeuNzU3zRsVvuj-23">
          <mxGeometry y="108" width="250" height="122" as="geometry" />
        </mxCell>
        <mxCell id="wvwNAToeuNzU3zRsVvuj-27" value="UAction" style="swimlane;fontStyle=1;align=center;verticalAlign=top;childLayout=stackLayout;horizontal=1;startSize=26;horizontalStack=0;resizeParent=1;resizeParentMax=0;resizeLast=0;collapsible=1;marginBottom=0;whiteSpace=wrap;html=1;fillColor=#FFFCD4;strokeColor=#36393d;" vertex="1" parent="WIyWlLk6GJQsqaUBKTNV-1">
          <mxGeometry x="970" y="630" width="160" height="150" as="geometry" />
        </mxCell>
        <mxCell id="wvwNAToeuNzU3zRsVvuj-28" value="actionName&lt;div&gt;actionParams&lt;/div&gt;&lt;div&gt;modified: boolean&lt;/div&gt;&lt;div&gt;img&lt;/div&gt;" style="text;strokeColor=none;fillColor=none;align=left;verticalAlign=top;spacingLeft=4;spacingRight=4;overflow=hidden;rotatable=0;points=[[0,0.5],[1,0.5]];portConstraint=eastwest;whiteSpace=wrap;html=1;" vertex="1" parent="wvwNAToeuNzU3zRsVvuj-27">
          <mxGeometry y="26" width="160" height="74" as="geometry" />
        </mxCell>
        <mxCell id="wvwNAToeuNzU3zRsVvuj-29" value="" style="line;strokeWidth=1;fillColor=none;align=left;verticalAlign=middle;spacingTop=-1;spacingLeft=3;spacingRight=3;rotatable=0;labelPosition=right;points=[];portConstraint=eastwest;strokeColor=inherit;" vertex="1" parent="wvwNAToeuNzU3zRsVvuj-27">
          <mxGeometry y="100" width="160" height="8" as="geometry" />
        </mxCell>
        <mxCell id="wvwNAToeuNzU3zRsVvuj-30" value="&lt;div&gt;updateParamValue(keyPressed)&lt;br&gt;&lt;/div&gt;&lt;div&gt;actionToJson()&lt;br&gt;&lt;/div&gt;" style="text;strokeColor=none;fillColor=none;align=left;verticalAlign=top;spacingLeft=4;spacingRight=4;overflow=hidden;rotatable=0;points=[[0,0.5],[1,0.5]];portConstraint=eastwest;whiteSpace=wrap;html=1;" vertex="1" parent="wvwNAToeuNzU3zRsVvuj-27">
          <mxGeometry y="108" width="160" height="42" as="geometry" />
        </mxCell>
        <mxCell id="wvwNAToeuNzU3zRsVvuj-31" value="UPanelActions" style="swimlane;fontStyle=1;align=center;verticalAlign=top;childLayout=stackLayout;horizontal=1;startSize=26;horizontalStack=0;resizeParent=1;resizeParentMax=0;resizeLast=0;collapsible=1;marginBottom=0;whiteSpace=wrap;html=1;fillColor=#FFFCD4;strokeColor=#36393d;" vertex="1" parent="WIyWlLk6GJQsqaUBKTNV-1">
          <mxGeometry x="480" y="688" width="150" height="100" as="geometry" />
        </mxCell>
        <mxCell id="wvwNAToeuNzU3zRsVvuj-32" value="&lt;div&gt;action_text&lt;br&gt;&lt;/div&gt;&lt;div&gt;action_hist&lt;br&gt;&lt;/div&gt;" style="text;strokeColor=none;fillColor=none;align=left;verticalAlign=top;spacingLeft=4;spacingRight=4;overflow=hidden;rotatable=0;points=[[0,0.5],[1,0.5]];portConstraint=eastwest;whiteSpace=wrap;html=1;" vertex="1" parent="wvwNAToeuNzU3zRsVvuj-31">
          <mxGeometry y="26" width="150" height="34" as="geometry" />
        </mxCell>
        <mxCell id="wvwNAToeuNzU3zRsVvuj-33" value="" style="line;strokeWidth=1;fillColor=none;align=left;verticalAlign=middle;spacingTop=-1;spacingLeft=3;spacingRight=3;rotatable=0;labelPosition=right;points=[];portConstraint=eastwest;strokeColor=inherit;" vertex="1" parent="wvwNAToeuNzU3zRsVvuj-31">
          <mxGeometry y="60" width="150" height="8" as="geometry" />
        </mxCell>
        <mxCell id="wvwNAToeuNzU3zRsVvuj-34" value="updateActions()" style="text;strokeColor=none;fillColor=none;align=left;verticalAlign=top;spacingLeft=4;spacingRight=4;overflow=hidden;rotatable=0;points=[[0,0.5],[1,0.5]];portConstraint=eastwest;whiteSpace=wrap;html=1;" vertex="1" parent="wvwNAToeuNzU3zRsVvuj-31">
          <mxGeometry y="68" width="150" height="32" as="geometry" />
        </mxCell>
        <mxCell id="wvwNAToeuNzU3zRsVvuj-37" value="USetup" style="swimlane;fontStyle=1;align=center;verticalAlign=top;childLayout=stackLayout;horizontal=1;startSize=26;horizontalStack=0;resizeParent=1;resizeParentMax=0;resizeLast=0;collapsible=1;marginBottom=0;whiteSpace=wrap;html=1;fillColor=#FFFCD4;strokeColor=#36393d;" vertex="1" parent="WIyWlLk6GJQsqaUBKTNV-1">
          <mxGeometry x="970" y="510" width="160" height="86" as="geometry" />
        </mxCell>
        <mxCell id="wvwNAToeuNzU3zRsVvuj-38" value="+ filename" style="text;strokeColor=none;fillColor=none;align=left;verticalAlign=top;spacingLeft=4;spacingRight=4;overflow=hidden;rotatable=0;points=[[0,0.5],[1,0.5]];portConstraint=eastwest;whiteSpace=wrap;html=1;" vertex="1" parent="wvwNAToeuNzU3zRsVvuj-37">
          <mxGeometry y="26" width="160" height="26" as="geometry" />
        </mxCell>
        <mxCell id="wvwNAToeuNzU3zRsVvuj-39" value="" style="line;strokeWidth=1;fillColor=none;align=left;verticalAlign=middle;spacingTop=-1;spacingLeft=3;spacingRight=3;rotatable=0;labelPosition=right;points=[];portConstraint=eastwest;strokeColor=inherit;" vertex="1" parent="wvwNAToeuNzU3zRsVvuj-37">
          <mxGeometry y="52" width="160" height="8" as="geometry" />
        </mxCell>
        <mxCell id="wvwNAToeuNzU3zRsVvuj-40" value="+ load()" style="text;strokeColor=none;fillColor=none;align=left;verticalAlign=top;spacingLeft=4;spacingRight=4;overflow=hidden;rotatable=0;points=[[0,0.5],[1,0.5]];portConstraint=eastwest;whiteSpace=wrap;html=1;" vertex="1" parent="wvwNAToeuNzU3zRsVvuj-37">
          <mxGeometry y="60" width="160" height="26" as="geometry" />
        </mxCell>
        <mxCell id="wvwNAToeuNzU3zRsVvuj-42" style="edgeStyle=orthogonalEdgeStyle;rounded=0;orthogonalLoop=1;jettySize=auto;html=1;endArrow=none;endFill=0;startArrow=none;startFill=0;" edge="1" parent="WIyWlLk6GJQsqaUBKTNV-1" source="wvwNAToeuNzU3zRsVvuj-23" target="wvwNAToeuNzU3zRsVvuj-27">
          <mxGeometry relative="1" as="geometry">
            <mxPoint x="840" y="690" as="sourcePoint" />
            <mxPoint x="995" y="690" as="targetPoint" />
          </mxGeometry>
        </mxCell>
        <mxCell id="wvwNAToeuNzU3zRsVvuj-43" value="0..*" style="edgeLabel;html=1;align=center;verticalAlign=middle;resizable=0;points=[];" vertex="1" connectable="0" parent="wvwNAToeuNzU3zRsVvuj-42">
          <mxGeometry x="0.2755" y="1" relative="1" as="geometry">
            <mxPoint x="19" y="-10" as="offset" />
          </mxGeometry>
        </mxCell>
        <mxCell id="wvwNAToeuNzU3zRsVvuj-54" value="UViewport: Clase de Visor de imagen (pestaña):&lt;div&gt;&lt;br&gt;&lt;/div&gt;&lt;div&gt;&amp;nbsp;# Controla las acciones de la imagen (UActionManager)&lt;/div&gt;&lt;div&gt;&amp;nbsp;# Ejecuta las acciones:&lt;/div&gt;&lt;div&gt;&lt;span style=&quot;white-space: pre;&quot;&gt;&#x9;&lt;/span&gt;-&amp;nbsp;&lt;span style=&quot;background-color: initial;&quot;&gt;do_action():&amp;nbsp;&lt;/span&gt;&lt;span style=&quot;background-color: initial;&quot;&gt;Punto de entrada de acciones&lt;/span&gt;&lt;/div&gt;&lt;div&gt;&lt;span style=&quot;white-space: pre;&quot;&gt;&#x9;&lt;/span&gt;- action_execute(): Ejecución automática según JSON de action: llama automáticamente&amp;nbsp;al método de CVUtils correspondiente con los parámetros indicados&lt;br&gt;&lt;/div&gt;&lt;div&gt;&lt;span style=&quot;white-space: pre;&quot;&gt;&#x9;&lt;/span&gt;- action_redo(): Re-ejecuta una acción con los parámetros modificados&lt;br&gt;&lt;/div&gt;&lt;div&gt;&lt;span style=&quot;white-space: pre;&quot;&gt;&#x9;&lt;/span&gt;- Graba y salva el histórico de acciones (Pipeline)&lt;br&gt;&lt;/div&gt;&lt;div&gt;&amp;nbsp;&lt;/div&gt;" style="shape=note2;boundedLbl=1;whiteSpace=wrap;html=1;size=12;verticalAlign=top;align=left;fillColor=#f5f5f5;fontColor=#333333;strokeColor=#666666;" vertex="1" parent="WIyWlLk6GJQsqaUBKTNV-1">
          <mxGeometry x="958" y="40" width="410" height="170" as="geometry" />
        </mxCell>
        <mxCell id="wvwNAToeuNzU3zRsVvuj-56" style="edgeStyle=orthogonalEdgeStyle;rounded=0;orthogonalLoop=1;jettySize=auto;html=1;entryX=1;entryY=0.059;entryDx=0;entryDy=0;entryPerimeter=0;" edge="1" parent="WIyWlLk6GJQsqaUBKTNV-1" source="wvwNAToeuNzU3zRsVvuj-54" target="wvwNAToeuNzU3zRsVvuj-1">
          <mxGeometry relative="1" as="geometry">
            <Array as="points">
              <mxPoint x="930" y="133" />
              <mxPoint x="930" y="133" />
            </Array>
          </mxGeometry>
        </mxCell>
        <mxCell id="wvwNAToeuNzU3zRsVvuj-57" value="UActionManager: Gestor de acciones&lt;div&gt;&amp;nbsp;# Lleva la gestión de las acciones de un UViewport&lt;/div&gt;&lt;div&gt;&amp;nbsp;# Devuelve la configuración de una action según su JSON (parámetros, teclas asociadas, valores iniciales, incrementos)&lt;/div&gt;&lt;div&gt;&amp;nbsp;# Gestiona la navegación por el histórico de acciones, re-ejecutando las mismas si algún estado anterior ha sido modificado&lt;/div&gt;" style="shape=note2;boundedLbl=1;whiteSpace=wrap;html=1;size=12;verticalAlign=top;align=left;fillColor=#f5f5f5;fontColor=#333333;strokeColor=#666666;" vertex="1" parent="WIyWlLk6GJQsqaUBKTNV-1">
          <mxGeometry x="970" y="360" width="390" height="130" as="geometry" />
        </mxCell>
        <mxCell id="wvwNAToeuNzU3zRsVvuj-63" value="FileUtils" style="swimlane;fontStyle=1;align=center;verticalAlign=top;childLayout=stackLayout;horizontal=1;startSize=26;horizontalStack=0;resizeParent=1;resizeParentMax=0;resizeLast=0;collapsible=1;marginBottom=0;whiteSpace=wrap;html=1;fillColor=#d5e8d4;strokeColor=#82b366;" vertex="1" parent="WIyWlLk6GJQsqaUBKTNV-1">
          <mxGeometry x="685" y="700" width="160" height="60" as="geometry" />
        </mxCell>
        <mxCell id="wvwNAToeuNzU3zRsVvuj-64" value="" style="line;strokeWidth=1;fillColor=none;align=left;verticalAlign=middle;spacingTop=-1;spacingLeft=3;spacingRight=3;rotatable=0;labelPosition=right;points=[];portConstraint=eastwest;strokeColor=inherit;" vertex="1" parent="wvwNAToeuNzU3zRsVvuj-63">
          <mxGeometry y="26" width="160" height="8" as="geometry" />
        </mxCell>
        <mxCell id="wvwNAToeuNzU3zRsVvuj-65" value="+ jsonReadFile()" style="text;strokeColor=none;fillColor=none;align=left;verticalAlign=top;spacingLeft=4;spacingRight=4;overflow=hidden;rotatable=0;points=[[0,0.5],[1,0.5]];portConstraint=eastwest;whiteSpace=wrap;html=1;" vertex="1" parent="wvwNAToeuNzU3zRsVvuj-63">
          <mxGeometry y="34" width="160" height="26" as="geometry" />
        </mxCell>
        <mxCell id="wvwNAToeuNzU3zRsVvuj-72" style="edgeStyle=orthogonalEdgeStyle;rounded=0;orthogonalLoop=1;jettySize=auto;html=1;entryX=0.96;entryY=0.043;entryDx=0;entryDy=0;entryPerimeter=0;" edge="1" parent="WIyWlLk6GJQsqaUBKTNV-1" source="wvwNAToeuNzU3zRsVvuj-57" target="wvwNAToeuNzU3zRsVvuj-23">
          <mxGeometry relative="1" as="geometry">
            <Array as="points">
              <mxPoint x="950" y="420" />
              <mxPoint x="950" y="420" />
            </Array>
          </mxGeometry>
        </mxCell>
      </root>
    </mxGraphModel>
  </diagram>
</mxfile>
